<svg id="Layer_1" data-name="Layer 1" xmlns="http://www.w3.org/2000/svg" viewBox="0 0 1440 1440"><defs><style>.cls-1{fill:#023341;}.cls-2{fill:#03d9d9;}</style></defs><circle class="cls-1" cx="574.16" cy="416.44" r="30.5"/><path class="cls-2" d="M820,678.91c-31.78-4.59-54.48-33.4-54.48-65.52V218.49c0-8.51-5.37-16.62-13.65-18.58a18.06,18.06,0,0,0-22.4,17.51V576.34a103,103,0,0,1-103,103H573.34c-144.77,0-264.49-116-266.87-258.47-1.27-76,29.41-147.39,86-199.07,49.37-45.07,114.84-68.38,181.69-68.38h9.32c32.31,0,61.29,22.84,65.91,54.82a64.42,64.42,0,0,1-63.64,73.87H573.41c-79.79,0-144.14,65.36-137.88,144.91C441,496.14,498.93,550.7,569.39,550.7h15.17c8.53,0,16.66-5.39,18.62-13.7a18.11,18.11,0,0,0-17.56-22.44H572.24c-50.41,0-94.77-36.82-100.36-86.92a98.25,98.25,0,0,1,97.51-109.35H580.2c12.55,0,23.88,9.39,24.43,21.93a23,23,0,0,1-22.94,24H571.17c-24.79,0-47.54,16.46-52.75,40.69a52.31,52.31,0,0,0,51,63.74h14c32.14,0,61,22.71,65.56,54.52a64.08,64.08,0,0,1-63.32,73.46H573.94c-106.08,0-191.61-86.86-184.32-192.69,6.44-93.56,84.61-167.71,179.77-167.71h15.29c8.7,0,17-5.49,19-14a18.45,18.45,0,0,0-17.88-22.87H569.39a217,217,0,0,0-217,220.76c2,117.61,101.08,213.3,221,213.3h53.08a57.11,57.11,0,0,0,57.11-57.11V216.24c0-.59,0-1.18.07-1.75a64,64,0,0,1,127.77,0c0,.57.06,1.16.06,1.75V614.57c0,8.51,5.38,16.62,13.66,18.58a18.06,18.06,0,0,0,22.4-17.5V219.49c0-32.12,22.7-60.93,54.49-65.52a64,64,0,0,1,73.41,63.28v397.3c0,8.51,5.38,16.62,13.67,18.57a18.07,18.07,0,0,0,22.38-17.52V177.92c0-12.55,9.4-23.89,21.93-24.43a23,23,0,0,1,24,22.94V613.35c0,32.12-22.7,60.93-54.49,65.52a64,64,0,0,1-73.41-63.27V218.31c0-8.52-5.38-16.62-13.67-18.58a18.07,18.07,0,0,0-22.39,17.52v398.4A64,64,0,0,1,820,678.91Z"/><path class="cls-1" d="M168.19,852.83a57.58,57.58,0,0,0,4.32,22.83,52.12,52.12,0,0,0,11.66,17.19A50.26,50.26,0,0,0,201,903.68a53.83,53.83,0,0,0,20,3.76,52.28,52.28,0,0,0,27.87-7.59,50.21,50.21,0,0,0,19.07-21.1h40.58a81.69,81.69,0,0,1-11.74,25.18,86.05,86.05,0,0,1-19.31,20,89.14,89.14,0,0,1-25.66,13.2,98.45,98.45,0,0,1-31,4.72,96.19,96.19,0,0,1-37-7,90.71,90.71,0,0,1-29.24-19.07A87,87,0,0,1,128.43,853a88.11,88.11,0,0,1,6.84-34.64A87.13,87.13,0,0,1,154.42,790a90.13,90.13,0,0,1,29.26-19.15,96.12,96.12,0,0,1,37.16-7,97.62,97.62,0,0,1,30.87,4.74,90.56,90.56,0,0,1,25.59,13.1,84.32,84.32,0,0,1,19.3,20,85.68,85.68,0,0,1,11.91,25.27H267.93a49.25,49.25,0,0,0-19-20.95A52.86,52.86,0,0,0,221,798.4a54.68,54.68,0,0,0-20.12,3.75A49.88,49.88,0,0,0,184.08,813a52.62,52.62,0,0,0-11.57,17.19A57.08,57.08,0,0,0,168.19,852.83Z"/><path class="cls-1" d="M323.44,853a93.13,93.13,0,0,1,6.43-34.64,85,85,0,0,1,18.26-28.27A86.43,86.43,0,0,1,376.48,771a93.58,93.58,0,0,1,36.76-7,83.91,83.91,0,0,1,18,1.88,90.07,90.07,0,0,1,16.05,5,77.55,77.55,0,0,1,13.77,7.51,87.35,87.35,0,0,1,11.17,9l2.29-18.42H508.4v167.7H474.52l-2.29-18.41a81.51,81.51,0,0,1-11.4,9.12,85.44,85.44,0,0,1-13.78,7.41,89,89,0,0,1-16,5.06,83.88,83.88,0,0,1-18,1.86,94,94,0,0,1-36.59-6.92,84.29,84.29,0,0,1-28.27-19A86.1,86.1,0,0,1,330,887.62,91.93,91.93,0,0,1,323.44,853Zm39.6-.17A56.66,56.66,0,0,0,367.28,875,51.83,51.83,0,0,0,396,903.61a57.08,57.08,0,0,0,41.88,0,51.61,51.61,0,0,0,17-11.25,53.92,53.92,0,0,0,11.49-17.27,56.94,56.94,0,0,0,4.23-22.26,56.05,56.05,0,0,0-4.23-21.92,52.18,52.18,0,0,0-11.59-17.19,53.95,53.95,0,0,0-38.13-15.32,55.12,55.12,0,0,0-21,4,51.23,51.23,0,0,0-17,11.24,53.13,53.13,0,0,0-11.41,17.27A56.75,56.75,0,0,0,363,852.83Z"/><path class="cls-1" d="M655.18,803.78l-19.71.17a61.15,61.15,0,0,0-20.86,3.34,42.76,42.76,0,0,0-15.91,9.93,43.49,43.49,0,0,0-10.09,16.46,68.07,68.07,0,0,0-3.5,22.74v80.35H545.5V769.07h32.1l3.59,20a67.91,67.91,0,0,1,21.44-14.35q12.95-5.7,30.71-5.7h21.84Z"/><path class="cls-1" d="M934.1,769.07l-59.81,167.7h-36L800.14,829.21,762.5,936.77H726.64L667,769.07h42.53l38.79,115.06h.49l37-113.93H815l37.16,113.93h.5l38.79-115.06Z"/><path class="cls-1" d="M932.07,853a88.11,88.11,0,0,1,6.85-34.64,86.41,86.41,0,0,1,19.15-28.27A91,91,0,0,1,987.32,771a96.13,96.13,0,0,1,37-7,97.11,97.11,0,0,1,37.24,7,90.7,90.7,0,0,1,29.33,19.07,89.57,89.57,0,0,1,19.32,97.63A86,86,0,0,1,1091,915.91a90.53,90.53,0,0,1-29.43,19,98.48,98.48,0,0,1-37.39,6.92,96.34,96.34,0,0,1-36.91-6.92,88.94,88.94,0,0,1-29.1-19A88,88,0,0,1,939,887.62,87.05,87.05,0,0,1,932.07,853Zm39.61-.17a57.3,57.3,0,0,0,4.15,22.09,53.33,53.33,0,0,0,11.32,17.27,51.76,51.76,0,0,0,16.8,11.34,52.52,52.52,0,0,0,20.69,4.06,53.42,53.42,0,0,0,20.7-4,50.86,50.86,0,0,0,16.78-11.25A53,53,0,0,0,1073.46,875a57.74,57.74,0,0,0,4.15-22.17,56.75,56.75,0,0,0-4.15-21.92,51.52,51.52,0,0,0-28.2-28.44,54.88,54.88,0,0,0-41.31-.07,50.87,50.87,0,0,0-16.8,11.24,53.55,53.55,0,0,0-11.32,17.27A56.94,56.94,0,0,0,971.68,852.83Z"/><path class="cls-1" d="M1311.57,936.77h-39.93V847.29q0-13.35-2.92-22.65a40.13,40.13,0,0,0-8.32-15.15,30.79,30.79,0,0,0-13.12-8.48,54.32,54.32,0,0,0-17.35-2.61,47.32,47.32,0,0,0-19.15,3.83A44.7,44.7,0,0,0,1195.71,813a48.7,48.7,0,0,0-9.86,16.45,60.22,60.22,0,0,0-3.51,20.94v86.38h-39.61V769.07H1175l2.94,16.95a87,87,0,0,1,11.74-8.56,95.47,95.47,0,0,1,13.93-7,91,91,0,0,1,15.57-4.72,79.78,79.78,0,0,1,16.46-1.71q19.53,0,33.9,5.46a59.74,59.74,0,0,1,23.7,16,66.24,66.24,0,0,1,13.86,25.91q4.47,15.39,4.47,35.12Z"/><path class="cls-1" d="M319.49,1044.91a34.09,34.09,0,0,1,10.27-24.56A35.64,35.64,0,0,1,341,1013a37.67,37.67,0,0,1,28,0,35.12,35.12,0,0,1,11.3,7.38,34.35,34.35,0,0,1,7.54,11,33.49,33.49,0,0,1,2.76,13.54,13,13,0,0,1-.06,1.39c0,.37-.09.73-.13,1.08H326.83a26.79,26.79,0,0,0,3,10.68,27.59,27.59,0,0,0,6.43,8.13,28.9,28.9,0,0,0,8.77,5.16,28.45,28.45,0,0,0,10.08,1.83,28.8,28.8,0,0,0,7.56-1,27.27,27.27,0,0,0,12.36-7.14,27.05,27.05,0,0,0,4.25-5.66h8.13a33.49,33.49,0,0,1-5.14,8.06,34.05,34.05,0,0,1-7.34,6.4,36.46,36.46,0,0,1-19.89,5.75,36,36,0,0,1-14-2.7,35.19,35.19,0,0,1-11.27-7.4,34.23,34.23,0,0,1-10.27-24.6Zm35.61-28.26a28.61,28.61,0,0,0-10.46,1.88,27.73,27.73,0,0,0-8.62,5.23,28.07,28.07,0,0,0-6.14,7.93,27.64,27.64,0,0,0-3,9.91H383a28,28,0,0,0-3-9.91,27.41,27.41,0,0,0-14.58-13.16A28,28,0,0,0,355.1,1016.65Z"/><path class="cls-1" d="M472.91,1077.86h-7.6v-35.74q0-13.06-6-19.1T442.11,1017a24.7,24.7,0,0,0-9.42,1.82,23.69,23.69,0,0,0-13.06,13.13,26.63,26.63,0,0,0-1.95,10.33v35.62H410.2V1012h6.37l.71,11.44a28.2,28.2,0,0,1,4.58-5.2,31.61,31.61,0,0,1,6.05-4.2,34.09,34.09,0,0,1,7.18-2.79,31.17,31.17,0,0,1,7.93-1q14.94,0,22.42,7.81t7.47,23.91Z"/><path class="cls-1" d="M489.48,1044.91a34.64,34.64,0,0,1,2.66-13.54,33.54,33.54,0,0,1,7.41-11,35.28,35.28,0,0,1,11.14-7.38,35.71,35.71,0,0,1,13.94-2.7,34.53,34.53,0,0,1,9.07,1.17,35.74,35.74,0,0,1,8,3.25,33.41,33.41,0,0,1,11.7,11l.78-13.64h6.43v57.32a48.15,48.15,0,0,1-.68,8,38.61,38.61,0,0,1-2.24,8.06,33.1,33.1,0,0,1-4.12,7.44,26.48,26.48,0,0,1-6.38,6.14,31.37,31.37,0,0,1-8.93,4.19,40.1,40.1,0,0,1-11.76,1.57,41.1,41.1,0,0,1-14.13-2.22,33.53,33.53,0,0,1-10.27-5.72,27.7,27.7,0,0,1-6.6-7.86,28.42,28.42,0,0,1-3.18-8.64h7.21a23.63,23.63,0,0,0,8.48,12.21,28.16,28.16,0,0,0,7.93,4.13,36.09,36.09,0,0,0,20.41.23,23.51,23.51,0,0,0,7.17-3.67,21.11,21.11,0,0,0,4.88-5.23,27.27,27.27,0,0,0,3-6.08,30.55,30.55,0,0,0,1.46-6.2,44.61,44.61,0,0,0,.4-5.59v-6.23a34.65,34.65,0,0,1-5.13,6.06,33.14,33.14,0,0,1-6.73,4.91,36.21,36.21,0,0,1-8.1,3.26,35.54,35.54,0,0,1-9.16,1.16,34.56,34.56,0,0,1-24.62-9.87,33.66,33.66,0,0,1-7.35-10.89A34.37,34.37,0,0,1,489.48,1044.91Zm7.54,0a27.87,27.87,0,0,0,8.22,20,27.24,27.24,0,0,0,9,5.88,29,29,0,0,0,11,2.11,28.71,28.71,0,0,0,11-2.11,27.71,27.71,0,0,0,9-5.88,28.56,28.56,0,0,0,6.05-31.07,27.27,27.27,0,0,0-6.08-8.86,28.68,28.68,0,0,0-9-5.88,28.6,28.6,0,0,0-30.9,5.88,27.64,27.64,0,0,0-8.22,19.91Z"/><path class="cls-1" d="M583.77,991.62a5.07,5.07,0,0,1,1.62-3.73,6.2,6.2,0,0,1,8.29,0,5.13,5.13,0,0,1,0,7.54,6,6,0,0,1-4.19,1.53,5.68,5.68,0,0,1-4.1-1.57A5,5,0,0,1,583.77,991.62Zm2,20.41h7.54v65.83h-7.54Z"/><path class="cls-1" d="M682.61,1077.86H675v-35.74q0-13.06-6-19.1T651.81,1017a24.7,24.7,0,0,0-9.42,1.82,23.69,23.69,0,0,0-13.06,13.13,26.45,26.45,0,0,0-2,10.33v35.62H619.9V1012h6.37l.71,11.44a28.2,28.2,0,0,1,4.58-5.2,31.61,31.61,0,0,1,6.05-4.2,34.09,34.09,0,0,1,7.18-2.79,31.17,31.17,0,0,1,7.93-1q14.94,0,22.42,7.81t7.47,23.91Z"/><path class="cls-1" d="M699.5,1044.91a34.09,34.09,0,0,1,10.27-24.56A35.76,35.76,0,0,1,721,1013a37.67,37.67,0,0,1,28,0,35.05,35.05,0,0,1,11.31,7.38,34.51,34.51,0,0,1,7.54,11,33.66,33.66,0,0,1,2.76,13.54,10.55,10.55,0,0,1-.07,1.39c0,.37-.09.73-.13,1.08H706.84a27,27,0,0,0,3,10.68,27.43,27.43,0,0,0,6.43,8.13,29.1,29.1,0,0,0,26.41,6,27.6,27.6,0,0,0,6.73-2.79,27.16,27.16,0,0,0,5.62-4.35,26.75,26.75,0,0,0,4.26-5.66h8.12a32.89,32.89,0,0,1-5.14,8.06,33.82,33.82,0,0,1-7.34,6.4,37.42,37.42,0,0,1-33.89,3.05,35.3,35.3,0,0,1-11.27-7.4,34.55,34.55,0,0,1-7.54-11A33.89,33.89,0,0,1,699.5,1044.91Zm35.61-28.26a28.65,28.65,0,0,0-10.46,1.88,27.87,27.87,0,0,0-17.74,23.07H763a27.72,27.72,0,0,0-27.88-24.95Z"/><path class="cls-1" d="M785.35,1044.91a34,34,0,0,1,10.26-24.56,35.85,35.85,0,0,1,25.29-10.08,36.51,36.51,0,0,1,14,2.7,35.27,35.27,0,0,1,11.31,7.38,34.83,34.83,0,0,1,7.54,11,33.66,33.66,0,0,1,2.76,13.54,10.31,10.31,0,0,1-.08,1.39c0,.37-.08.73-.13,1.08h-63.6a26.79,26.79,0,0,0,3,10.68,27.59,27.59,0,0,0,6.43,8.13,29.1,29.1,0,0,0,26.41,6,27.3,27.3,0,0,0,6.71-2.79,26.47,26.47,0,0,0,9.88-10h8.12a33.11,33.11,0,0,1-5.12,8.06,33.64,33.64,0,0,1-7.35,6.4,36,36,0,0,1-9.19,4.22,36.55,36.55,0,0,1-10.67,1.53,36,36,0,0,1-14-2.7,35.41,35.41,0,0,1-11.27-7.4,34.55,34.55,0,0,1-7.54-11A34.06,34.06,0,0,1,785.35,1044.91Zm35.6-28.26a28.61,28.61,0,0,0-10.46,1.88,27.87,27.87,0,0,0-17.74,23.07h56.08a28.43,28.43,0,0,0-3-9.91,27.88,27.88,0,0,0-6.08-7.93,27.48,27.48,0,0,0-8.52-5.23A28,28,0,0,0,821,1016.65Z"/><path class="cls-1" d="M915,1018.85h-6.69a29.35,29.35,0,0,0-10,1.66,21.56,21.56,0,0,0-7.88,4.87,22.11,22.11,0,0,0-5.12,8.06,31.13,31.13,0,0,0-1.86,11.15v33.27H876V1012h6.37l.78,12.67a26.17,26.17,0,0,1,4.12-5.07,25,25,0,0,1,5.63-4,30.69,30.69,0,0,1,7-2.64,34,34,0,0,1,8.22-.94H915Z"/><path class="cls-1" d="M928.69,991.62a5,5,0,0,1,1.63-3.73,5.69,5.69,0,0,1,4.16-1.59,5.77,5.77,0,0,1,4.13,1.59,5.13,5.13,0,0,1,0,7.54,6,6,0,0,1-4.2,1.53,5.66,5.66,0,0,1-4.09-1.57A5,5,0,0,1,928.69,991.62Zm1.95,20.41h7.54v65.83h-7.54Z"/><path class="cls-1" d="M1027.52,1077.86h-7.61v-35.74q0-13.06-6-19.1T996.72,1017a24.7,24.7,0,0,0-9.42,1.82,23.69,23.69,0,0,0-13.06,13.13,26.45,26.45,0,0,0-2,10.33v35.62h-7.47V1012h6.37l.72,11.44a27.13,27.13,0,0,1,4.58-5.2,31.23,31.23,0,0,1,6-4.2,33.88,33.88,0,0,1,7.18-2.79,31.06,31.06,0,0,1,7.93-1q15,0,22.42,7.81t7.47,23.91Z"/><path class="cls-1" d="M1044.09,1044.91a34.47,34.47,0,0,1,2.67-13.54,33.51,33.51,0,0,1,7.4-11,35.1,35.1,0,0,1,11.15-7.38,35.68,35.68,0,0,1,13.94-2.7,34.64,34.64,0,0,1,9.07,1.17,35.74,35.74,0,0,1,8,3.25,33.5,33.5,0,0,1,11.69,11l.79-13.64h6.44v57.32a48.24,48.24,0,0,1-.7,8,38,38,0,0,1-2.24,8.06,32.37,32.37,0,0,1-4.13,7.44,26,26,0,0,1-6.36,6.14,31.5,31.5,0,0,1-8.93,4.19,40.1,40.1,0,0,1-11.76,1.57,41.11,41.11,0,0,1-14.14-2.22,33.48,33.48,0,0,1-10.26-5.72,27.38,27.38,0,0,1-6.6-7.86,28.16,28.16,0,0,1-3.18-8.64h7.2a23.57,23.57,0,0,0,8.49,12.21,28.24,28.24,0,0,0,7.92,4.13,36.09,36.09,0,0,0,20.41.23,23.45,23.45,0,0,0,7.18-3.67,20.88,20.88,0,0,0,4.87-5.23,27.75,27.75,0,0,0,3-6.08,30.55,30.55,0,0,0,1.46-6.2,42.79,42.79,0,0,0,.4-5.59v-6.23a35.15,35.15,0,0,1-5.14,6.06,32.59,32.59,0,0,1-6.73,4.91,36.64,36.64,0,0,1-8.08,3.26,35.65,35.65,0,0,1-9.16,1.16,34.61,34.61,0,0,1-24.64-9.87,33.63,33.63,0,0,1-7.34-10.89A34.2,34.2,0,0,1,1044.09,1044.91Zm7.54,0a28,28,0,0,0,8.23,20,27.14,27.14,0,0,0,9,5.88,29.73,29.73,0,0,0,22,0,28.27,28.27,0,0,0,15-37,27,27,0,0,0-6.08-8.86,28.68,28.68,0,0,0-9-5.88,29,29,0,0,0-22,0,27.7,27.7,0,0,0-8.93,5.88,27.81,27.81,0,0,0-8.23,19.91Z"/></svg>